<?xml version="1.0" encoding="UTF-8"?>
<svg id="Layer_1" data-name="Layer 1" xmlns="http://www.w3.org/2000/svg" viewBox="0 0 800 800">
  <defs>
    <style>
      .cls-1 {
        opacity: .25;
      }

      .cls-2 {
        fill: #67070b;
      }
    </style>
  </defs>
  <g>
    <path class="cls-2" d="M122.96,141.09l4.48-4.33,38.68,20.47-20.42-38.14,4.52-4.38,34.61,26.02-4.52,4.38-33.55-25.27,20.42,37.97-4.48,4.33-38.51-20.47,12.8,18.06c5.7,8,9.61,12.3,15.96,11.84l-4.96,4.8-25.04-35.28Z"/>
    <path class="cls-2" d="M175.62,94.87l5.19-3.77,38.83,24.66-5.34,3.88-12.71-8.14-18.39,13.36c1.32,5.46,3.94,9.37,9.59,10.4l-6.62,4.81-10.56-45.2ZM201.04,111.15l-24.71-15.81,6.71,28.89,17.99-13.07Z"/>
    <path class="cls-2" d="M223.49,113.73l-.53.3-20.87-37.33,15.47-8.65c8.96-5.01,16.13-3.07,20.19,4.19,3.52,6.29,2.35,12.47-3.91,17.3l16.8,9.02-6.35,3.55-16.52-8.9-12,6.71,7.72,13.81ZM237.21,72.54c-2.18-3.89-6.76-4.83-14.23-.66l-17.44,9.75,7.33,13.12,17.44-9.75c7.47-4.17,9.04-8.62,6.89-12.46Z"/>
    <path class="cls-2" d="M259.28,76.23l-24.65-17.54,6.07-2.58,23.16,16.85,1.85-12.21c1.14-6.86,1.75-11.97-3.08-13.96l6.41-2.73-4.66,29.34,6.88,16.2-5.34,2.27-6.65-15.63Z"/>
    <path class="cls-2" d="M292.76,58.53c-3.5-13.61,3.34-23.57,15.53-26.71,5.8-1.49,9.87-1.59,13.45-.68l1.49,5.8c-3.71-.69-7.53-.84-14.46.94-11.01,2.83-18.19,9.72-15.43,20.5,2.77,10.77,12.48,13.7,23.49,10.87,6.57-1.69,10.94-3.82,13.83-6.08-1.7-6.38-6.05-9.3-13.6-10.95l10.65-2.74,4.82,18.76c-2.7,2.52-7.5,4.7-13.3,6.19-12.19,3.13-22.99-2.29-26.49-15.91Z"/>
    <path class="cls-2" d="M334.51,48.08c-1.77-13.94,5.83-22.92,17.23-24.37,11.4-1.45,20.95,5.34,22.72,19.29,1.77,13.94-5.77,22.91-17.17,24.36-11.4,1.45-21.01-5.34-22.78-19.28ZM373.85,43.08c-1.4-11.03-10.45-14.81-21.36-13.42-10.97,1.4-18.78,7.32-17.38,18.35,1.4,11.03,10.45,14.81,21.42,13.42,10.91-1.39,18.72-7.31,17.32-18.34Z"/>
    <path class="cls-2" d="M382.41,21.53l29.69-.48.09,5.62-29.08.47.25,15.15,26.33-.43v.61s-26.32.43-26.32.43l.26,15.76,29.08-.47.09,5.62-29.69.48-.7-42.76Z"/>
    <path class="cls-2" d="M416.28,62.26l.56-5.96c3.09,1.7,7.44,3.15,14.07,3.77,10.22.95,13.97-1.76,14.38-6.08,1.03-11.01-26.99-8.66-25.74-22.04.54-5.78,6.08-10.54,17.94-9.43,5.6.52,9.15,1.96,12,3.57l-.56,5.96c-2.57-1.35-5.98-3.01-12.85-3.65-9.73-.91-13.39,2.06-13.76,6.02-.99,10.59,27.03,8.29,25.74,22.04-.57,6.08-6.15,10.66-18.68,9.49-5.78-.54-10.01-1.92-13.1-3.68Z"/>
    <path class="cls-2" d="M466.75,48.4c3.33-13.66,14.06-19.22,26.29-16.24,5.82,1.42,9.46,3.25,12.19,5.74l-1.42,5.82c-2.95-2.35-6.25-4.29-13.2-5.98-11.04-2.69-20.63,0-23.27,10.81-2.63,10.81,4.55,17.97,15.6,20.66,6.59,1.61,11.45,1.78,15.07,1.16,1.5-6.43-.95-11.05-6.84-16.07l10.69,2.61-4.59,18.82c-3.57.95-8.83.62-14.65-.8-12.23-2.98-19.2-12.86-15.87-26.51Z"/>
    <path class="cls-2" d="M518.07,39.87l7.99,2.9c-7.14,3.91-12.14,10.35-15.6,19.89l-4.48,12.35,25.56,9.27-1.92,5.28-26.14-9.48,14.58-40.21Z"/>
    <path class="cls-2" d="M538.45,69.88c6.17-12.63,17.45-15.96,27.77-10.92s14.58,15.96,8.41,28.59c-6.17,12.63-17.39,15.99-27.71,10.95-10.32-5.04-14.63-15.98-8.47-28.61ZM574.08,87.27c4.88-9.99-.61-18.11-10.49-22.94-9.94-4.85-19.71-4.19-24.59,5.81-4.88,9.99.61,18.11,10.55,22.96,9.88,4.82,19.66,4.16,24.54-5.83Z"/>
    <path class="cls-2" d="M593.51,74.03l14.08,9.17c8.6,5.6,11.22,11.32,6.35,18.79-3.47,5.32-10.38,3.74-16.68-.36,7.42,4.84,11.77,10.15,8.1,15.78-5.04,7.73-11.49,7.9-20.09,2.3l-15.1-9.84,23.35-35.84ZM604.84,117.08c3.5-5.37-.48-10.45-9.6-16.39l-12.9-8.41-8.6,13.21,14.49,9.44c8.45,5.5,13.81,6.45,16.61,2.15ZM613.42,101.66c2.8-4.3-.31-8.15-8.75-13.65l-13.72-8.94-8.27,12.7,12.39,8.07c8.86,5.77,15.05,6.89,18.36,1.82Z"/>
    <path class="cls-2" d="M640.75,107.63l4.92,4.11-14.44,43.68-5.06-4.23,4.79-14.31-17.45-14.58c-4.97,2.61-8.13,6.11-7.75,11.84l-6.28-5.25,41.26-21.27ZM631.16,136.25l9.31-27.82-26.38,13.56,17.07,14.26Z"/>
    <path class="cls-2" d="M664.48,128.69l5.89,6.11c-8.13.37-15.45,3.95-22.76,10.99l-9.46,9.12,18.87,19.57-4.05,3.9-19.29-20.02,30.79-29.68Z"/>
  </g>
  <g>
    <path class="cls-2" d="M677.04,658.91l-4.48,4.33-38.68-20.47,20.42,38.14-4.52,4.38-34.61-26.02,4.52-4.38,33.55,25.27-20.42-37.97,4.48-4.33,38.51,20.47-12.8-18.06c-5.7-8-9.61-12.3-15.96-11.84l4.96-4.8,25.04,35.28Z"/>
    <path class="cls-2" d="M624.35,705.14l-5.19,3.77-38.82-24.66,5.34-3.88,12.7,8.14,18.39-13.35c-1.32-5.46-3.94-9.37-9.59-10.4l6.62-4.81,10.54,45.19ZM598.94,688.86l24.7,15.82-6.7-28.88-17.99,13.07Z"/>
    <path class="cls-2" d="M576.51,686.27l.53-.3,20.87,37.33-15.47,8.65c-8.96,5.01-16.13,3.07-20.19-4.19-3.52-6.29-2.35-12.47,3.91-17.3l-16.8-9.02,6.35-3.55,16.52,8.9,12-6.71-7.72-13.81ZM562.79,727.47c2.18,3.89,6.76,4.83,14.23.66l17.44-9.75-7.33-13.12-17.44,9.75c-7.47,4.17-9.04,8.62-6.89,12.46Z"/>
    <path class="cls-2" d="M540.72,723.77l24.65,17.54-6.07,2.58-23.16-16.85-1.85,12.21c-1.14,6.86-1.75,11.97,3.08,13.96l-6.41,2.72,4.66-29.34-6.88-16.2,5.34-2.27,6.65,15.63Z"/>
    <path class="cls-2" d="M507.24,741.47c3.5,13.61-3.34,23.57-15.53,26.71-5.8,1.49-9.87,1.59-13.45.68l-1.49-5.8c3.71.69,7.53.84,14.46-.94,11.01-2.83,18.19-9.72,15.43-20.5-2.77-10.77-12.48-13.7-23.49-10.87-6.57,1.69-10.94,3.82-13.83,6.08,1.7,6.38,6.05,9.3,13.6,10.95l-10.65,2.74-4.82-18.76c2.7-2.52,7.5-4.7,13.3-6.19,12.19-3.13,22.99,2.29,26.49,15.91Z"/>
    <path class="cls-2" d="M465.49,751.92c1.77,13.94-5.83,22.92-17.23,24.37-11.4,1.45-20.95-5.34-22.72-19.29-1.77-13.94,5.77-22.91,17.17-24.36,11.4-1.45,21.01,5.34,22.78,19.28ZM426.15,756.92c1.4,11.03,10.45,14.81,21.36,13.42,10.97-1.4,18.78-7.32,17.38-18.35-1.4-11.03-10.45-14.81-21.42-13.42-10.91,1.39-18.72,7.31-17.32,18.34Z"/>
    <path class="cls-2" d="M417.59,778.47l-29.69.48-.09-5.62,29.08-.47-.25-15.15-26.33.43v-.61s26.32-.43,26.32-.43l-.26-15.76-29.08.47-.09-5.62,29.69-.48.7,42.76Z"/>
    <path class="cls-2" d="M383.72,737.74l-.56,5.96c-3.09-1.7-7.44-3.15-14.07-3.77-10.22-.95-13.97,1.76-14.38,6.08-1.03,11.01,26.99,8.66,25.74,22.04-.54,5.78-6.08,10.54-17.94,9.43-5.6-.52-9.15-1.96-12-3.57l.56-5.96c2.57,1.35,5.98,3.01,12.85,3.65,9.73.91,13.39-2.06,13.76-6.02.99-10.59-27.03-8.29-25.74-22.04.57-6.08,6.15-10.66,18.68-9.49,5.78.54,10.01,1.92,13.1,3.68Z"/>
    <path class="cls-2" d="M333.25,751.6c-3.33,13.66-14.06,19.22-26.29,16.24-5.82-1.42-9.46-3.25-12.19-5.74l1.42-5.82c2.95,2.35,6.25,4.29,13.2,5.98,11.04,2.69,20.63,0,23.27-10.81,2.63-10.81-4.55-17.97-15.6-20.66-6.59-1.61-11.45-1.78-15.07-1.16-1.5,6.43.95,11.05,6.84,16.07l-10.69-2.61,4.59-18.82c3.57-.95,8.83-.62,14.65.8,12.23,2.98,19.2,12.86,15.87,26.51Z"/>
    <path class="cls-2" d="M281.93,760.13l-7.99-2.9c7.14-3.91,12.14-10.35,15.6-19.89l4.48-12.35-25.56-9.27,1.92-5.28,26.14,9.48-14.58,40.21Z"/>
    <path class="cls-2" d="M261.55,730.13c-6.17,12.63-17.45,15.96-27.77,10.92s-14.58-15.96-8.41-28.59c6.17-12.63,17.39-15.99,27.71-10.95,10.32,5.04,14.63,15.98,8.47,28.61ZM225.92,712.73c-4.88,9.99.61,18.11,10.49,22.94,9.94,4.85,19.71,4.19,24.59-5.81,4.88-9.99-.61-18.11-10.55-22.96-9.88-4.82-19.66-4.16-24.54,5.83Z"/>
    <path class="cls-2" d="M206.49,725.97l-14.08-9.17c-8.6-5.6-11.22-11.32-6.35-18.79,3.47-5.32,10.38-3.74,16.68.36-7.42-4.84-11.77-10.15-8.1-15.78,5.04-7.73,11.49-7.9,20.09-2.3l15.1,9.84-23.35,35.84ZM186.58,698.34c-2.8,4.3.31,8.15,8.75,13.65l13.72,8.94,8.27-12.7-12.39-8.07c-8.86-5.77-15.05-6.89-18.36-1.82ZM195.16,682.92c-3.5,5.38.48,10.45,9.6,16.39l12.9,8.41,8.6-13.21-14.49-9.44c-8.45-5.5-13.81-6.45-16.61-2.15Z"/>
    <path class="cls-2" d="M159.25,692.37l-4.92-4.11,14.44-43.68,5.06,4.23-4.79,14.31,17.45,14.58c4.97-2.61,8.13-6.11,7.75-11.84l6.28,5.25-41.26,21.27ZM168.84,663.75l-9.31,27.82,26.38-13.56-17.07-14.26Z"/>
    <path class="cls-2" d="M135.52,671.31l-5.89-6.11c8.13-.37,15.45-3.95,22.76-10.99l9.46-9.12-18.87-19.57,4.05-3.9,19.29,20.02-30.79,29.68Z"/>
  </g>
  <path class="cls-2" d="M754.06,388.36c-6.42,0-11.64,5.22-11.64,11.64s5.22,11.64,11.64,11.64,11.64-5.22,11.64-11.64-5.22-11.64-11.64-11.64Z"/>
  <path class="cls-2" d="M45.94,388.36c-6.42,0-11.64,5.22-11.64,11.64s5.22,11.64,11.64,11.64,11.64-5.22,11.64-11.64-5.22-11.64-11.64-11.64Z"/>
  <g class="cls-1">
    <path class="cls-2" d="M116.96,181.49c-44.62,57.56-70.38,126.87-74.04,200.26.98-.16,1.98-.27,3.01-.27,1.35,0,2.66.15,3.93.43,3.73-73.03,29.92-140.22,71.77-194.8l-4.68-5.62Z"/>
    <path class="cls-2" d="M683.04,181.49l-4.68,5.62c41.85,54.59,68.04,121.77,71.77,194.8,1.27-.28,2.58-.43,3.93-.43,1.03,0,2.03.11,3.01.27-3.67-73.39-29.42-142.71-74.04-200.26Z"/>
  </g>
  <g class="cls-1">
    <path class="cls-2" d="M683.04,618.51c44.62-57.56,70.38-126.87,74.04-200.26-.98.16-1.98.27-3.01.27-1.35,0-2.66-.15-3.93-.43-3.73,73.03-29.92,140.21-71.77,194.8l4.68,5.62Z"/>
    <path class="cls-2" d="M121.64,612.89c-41.85-54.59-68.04-121.77-71.77-194.8-1.27.28-2.58.43-3.93.43-1.03,0-2.03-.11-3.01-.27,3.67,73.39,29.42,142.7,74.04,200.26l4.68-5.62Z"/>
  </g>
  <g>
    <path class="cls-2" d="M548.61,369.9l-5.6,11.85c-25.21,47.74-77.57,59.19-111.22,12.35-29.29-40.77-28.89-109.08.59-149.61,20.25-27.84,54.57-39.68,84.22-17.47,3.56,2.67,6.32,6.38,9.52,8.83.59.46,1.22.93,1.78.88-1.82-27.55,35.32-57.71,60.77-42.71,17.7,10.43,5.28,27.91-.09,41.54-4.5,11.41-9.31,26.35-7.94,38.7,2.01,17.99,12.97,30.76,20.58,46.3,34.34,70.1,34.7,157.14-7.14,224.13-53.61,85.83-159.92,113.04-249.46,65.02-55.56-29.79-90.1-107.04-69.46-167.92,5.48-16.16,23.71-41.03,42.58-26.56,18.42,14.12,19.65,64.07,24.49,86.19,5.44,24.83,26.23,59.25,45.39,75.94,34.28,29.87,87.05,1.56,113.66-26.03,44.23-45.86,63.68-119.61,47.33-181.42ZM493.44,263.53c-38.55,4.95-43.2,85.83-7.97,102.93,27.25,13.22,44.91-21.95,46.56-44.21,1.71-23.09-8.45-62.58-38.59-58.72Z"/>
    <path class="cls-2" d="M253.08,258.1c.51-.07.95-.18,1.32-.76,3.9-6.07,6.08-11.99,11.12-17.86,18.59-21.69,45.04-17,45.61,11.75.04,1.92-.1,3.84-.33,5.74-1.89,15.32-2.63,30.77-.61,46.11l4.14-20.12c4.66-20.26,18.62-55.43,42.1-59.11,29.6-4.63,26.22,33.25,26.83,52.33.77,23.58.43,47.4,1.23,70.97,1.09,31.9,3.04,64,4.72,95.9.64,12.18,6.51,31.93,18.15,38.08,13.72,7.24,14.52-8.8,18.11-17.2,7.17-16.8,33.52-25.95,46.61-10.83,15.24,17.6.6,45.77-12.46,60.37-29.19,32.63-73.2,14.42-92.2-19.04-18.83-33.18-17.43-101.32-19.07-140.15-.72-17.08-.25-35.94-1.78-52.67-1.03-11.24-4.79-3.83-7.2,1.66-5.27,12-9.81,28.47-10.54,41.54-.65,11.61,3.67,31.66-7.75,38.42-13.09,7.74-25.89-8.73-29.82-19.8-8.08-22.8-6.19-50.2-11.25-73.98-.8-3.78-2.69-13.51-7.7-13-3.07.31-4.58,7.92-5.03,10.53-5.86,34.06-4.02,72.62-7.72,107.54-1.71,16.1-4.33,39.5-24.03,42.85-20.24,3.45-25.41-11.79-26.3-28.62-2.51-47.72,7.19-96.95,10.41-144.54.09-1.37-.25-2.74-.98-3.91h0c-.7-1.12-2.02-1.74-3.3-1.43-2.05.48-3.23,2.12-4.2,4.4-3.3,7.7-3.31,16.14-7.73,24.23-9.17,16.82-28.54,11.89-29.68-6.62-1.26-20.35,23.73-58.64,45.33-61.19,24.56-2.9,33.69,17.33,33.97,38.4Z"/>
  </g>
</svg>